<svg width="1024" height="1024" viewBox="0 0 1024 1024" fill="none" xmlns="http://www.w3.org/2000/svg">
<path d="M511 962C703.593 962 861 815.833 861 634C861 452.167 703.593 306 511 306C318.407 306 161 452.167 161 634C161 815.833 318.407 962 511 962Z" fill="#22E16A"/>
<path d="M511 962C703.593 962 861 815.833 861 634C861 452.167 703.593 306 511 306C318.407 306 161 452.167 161 634C161 815.833 318.407 962 511 962Z" fill="url(#paint0_linear)"/>
<path d="M511 962C703.593 962 861 815.833 861 634C861 452.167 703.593 306 511 306C318.407 306 161 452.167 161 634C161 815.833 318.407 962 511 962Z" stroke="#00B243" stroke-width="22"/>
<path d="M797.497 595.953C737.719 708.657 651.373 727.441 527.389 727.441H496.393C372.409 727.441 288.831 724.127 226.285 595.953C225.629 594.592 212.165 568.804 206.864 510.772C201.563 452.74 217.296 390.014 226.285 372.995C286.063 260.291 372.409 241.506 496.393 241.506L527.389 241.506C651.373 241.506 734.952 244.821 797.497 372.995C806.486 390.014 822.216 452.74 816.915 510.772C811.615 568.804 798.154 594.593 797.497 595.953Z" fill="#22E16A" stroke="#00B243" stroke-width="22"/>
<rect x="495.215" y="198.63" width="33.3485" height="33.3485" fill="#00B243"/>
<mask id="path-4-inside-1" fill="white">
<path fill-rule="evenodd" clip-rule="evenodd" d="M577.396 135.506C577.396 171.684 548.068 201.012 511.89 201.012C475.712 201.012 446.384 171.684 446.384 135.506C446.384 99.328 475.712 70 511.89 70C548.068 70 577.396 99.328 577.396 135.506Z"/>
</mask>
<path fill-rule="evenodd" clip-rule="evenodd" d="M577.396 135.506C577.396 171.684 548.068 201.012 511.89 201.012C475.712 201.012 446.384 171.684 446.384 135.506C446.384 99.328 475.712 70 511.89 70C548.068 70 577.396 99.328 577.396 135.506Z" fill="#22E16A"/>
<path d="M511.89 212.012C554.143 212.012 588.396 177.759 588.396 135.506H566.396C566.396 165.609 541.992 190.012 511.89 190.012V212.012ZM435.384 135.506C435.384 177.759 469.637 212.012 511.89 212.012V190.012C481.787 190.012 457.384 165.609 457.384 135.506H435.384ZM511.89 59C469.637 59 435.384 93.2529 435.384 135.506H457.384C457.384 105.403 481.787 81 511.89 81V59ZM588.396 135.506C588.396 93.2529 554.143 59 511.89 59V81C541.992 81 566.396 105.403 566.396 135.506H588.396Z" fill="#00B243" mask="url(#path-4-inside-1)"/>
<path d="M719.705 558.794C676.209 633.93 613.382 646.452 523.168 646.452H500.614C410.4 646.452 349.586 644.242 304.076 558.794C303.599 557.886 293.802 540.694 289.945 502.006C286.088 463.318 297.535 421.501 304.076 410.155C347.572 335.018 410.4 322.496 500.614 322.496L523.168 322.496C613.382 322.496 674.196 324.706 719.705 410.155C726.245 421.501 737.691 463.318 733.834 502.006C729.978 540.694 720.183 557.886 719.705 558.794Z" fill="#4DFF90" stroke="#008A34" stroke-width="22"/>
<circle cx="400.529" cy="481.496" r="32.753" fill="#231F20"/>
<circle cx="619.677" cy="481.496" r="32.753" fill="#231F20"/>
<path fill-rule="evenodd" clip-rule="evenodd" d="M564.773 540.705C559.554 537.384 552.631 538.922 549.311 544.141C549.173 544.358 535.234 565.834 511.72 565.834C488.206 565.834 474.267 544.358 474.129 544.141C470.808 538.923 463.886 537.384 458.667 540.705C453.449 544.026 451.91 550.949 455.231 556.167C456.064 557.476 476.047 588.234 511.72 588.234C547.393 588.234 567.376 557.477 568.209 556.167C571.53 550.948 569.991 544.026 564.773 540.705Z" fill="#231F20"/>
<path d="M605.882 775C681.516 775 723.181 832.915 730 890.946C608.467 984.351 418 984.351 293 890.946C299.819 832.915 342.777 775 417.118 775H605.882Z" fill="#22E16A"/>
<path d="M605.882 775C681.516 775 723.181 832.915 730 890.946C608.467 984.351 418 984.351 293 890.946C299.819 832.915 342.777 775 417.118 775M608.467 775H414.533" stroke="#00B243" stroke-width="20"/>
<path d="M817.363 408.249C941.37 408.249 904.107 591.07 817.363 591.07V408.249Z" fill="#22E16A" stroke="#00B243" stroke-width="22"/>
<path d="M206.642 409.44C82.6353 409.44 119.899 592.261 206.642 592.261L206.642 409.44Z" fill="#22E16A" stroke="#00B243" stroke-width="22"/>
<defs>
<linearGradient id="paint0_linear" x1="304.337" y1="697.043" x2="581.672" y2="713.005" gradientUnits="userSpaceOnUse">
<stop stop-color="#4DFF90"/>
<stop offset="1" stop-color="#22E16A" stop-opacity="0"/>
</linearGradient>
</defs>
</svg>
